<?xml version="1.0" encoding="UTF-8" standalone="no"?>
<!DOCTYPE svg PUBLIC "-//W3C//DTD SVG 1.1//EN"
 "http://www.w3.org/Graphics/SVG/1.1/DTD/svg11.dtd">
<!-- Generated by graphviz version 6.0.1 (20220911.1526)
 -->
<!-- Pages: 1 -->
<svg width="791pt" height="315pt"
 viewBox="0.00 0.00 791.00 315.00" xmlns="http://www.w3.org/2000/svg" xmlns:xlink="http://www.w3.org/1999/xlink">
<g id="graph0" class="graph" transform="scale(1 1) rotate(0) translate(4 311)">
<polygon fill="white" stroke="none" points="-4,4 -4,-311 787,-311 787,4 -4,4"/>
<!-- communication -->
<g id="node1" class="node">
<title>communication</title>
<polygon fill="#99ffcc" stroke="black" points="291.5,-144 189.5,-144 189.5,-108 291.5,-108 291.5,-144"/>
<text text-anchor="middle" x="240.5" y="-122.3" font-family="Times New Roman,serif" font-size="14.00">communication</text>
</g>
<!-- robot_control -->
<g id="node2" class="node">
<title>robot_control</title>
<polygon fill="#99ffcc" stroke="black" points="535.5,-215 440.5,-215 440.5,-179 535.5,-179 535.5,-215"/>
<text text-anchor="middle" x="488" y="-193.3" font-family="Times New Roman,serif" font-size="14.00">robot_control</text>
</g>
<!-- communication&#45;&gt;robot_control -->
<g id="edge1" class="edge">
<title>communication&#45;&gt;robot_control</title>
<path fill="none" stroke="black" stroke-dasharray="5,2" d="M264.19,-144.08C278.95,-154.86 299.09,-167.8 319,-175 338.95,-182.22 389.78,-188.29 430.34,-192.21"/>
<polygon fill="black" stroke="black" points="430.12,-195.7 440.4,-193.16 430.77,-188.74 430.12,-195.7"/>
<text text-anchor="middle" x="370.5" y="-194.8" font-family="Times New Roman,serif" font-size="14.00">system.state</text>
</g>
<!-- communication&#45;&gt;robot_control -->
<g id="edge2" class="edge">
<title>communication&#45;&gt;robot_control</title>
<path fill="none" stroke="black" stroke-dasharray="5,2" d="M291.77,-133.31C340.89,-140.63 409.98,-151.42 422,-156 433.38,-160.33 444.91,-166.79 455.03,-173.3"/>
<polygon fill="black" stroke="black" points="453.27,-176.33 463.53,-178.99 457.16,-170.51 453.27,-176.33"/>
<text text-anchor="middle" x="370.5" y="-159.8" font-family="Times New Roman,serif" font-size="14.00">usercmd.setpoints</text>
</g>
<!-- servo_driver -->
<g id="node3" class="node">
<title>servo_driver</title>
<polygon fill="#ff99cc" stroke="black" points="531.5,-90 444.5,-90 444.5,-54 531.5,-54 531.5,-90"/>
<text text-anchor="middle" x="488" y="-68.3" font-family="Times New Roman,serif" font-size="14.00">servo_driver</text>
</g>
<!-- communication&#45;&gt;servo_driver -->
<g id="edge3" class="edge">
<title>communication&#45;&gt;servo_driver</title>
<path fill="none" stroke="black" d="M284.84,-107.95C295.84,-103.88 307.73,-99.91 319,-97 357.03,-87.17 400.98,-80.8 434.38,-76.95"/>
<polygon fill="black" stroke="black" points="434.84,-80.42 444.39,-75.84 434.07,-73.47 434.84,-80.42"/>
<text text-anchor="middle" x="370.5" y="-100.8" font-family="Times New Roman,serif" font-size="14.00">servo.setpoint</text>
</g>
<!-- lighting_driver -->
<g id="node4" class="node">
<title>lighting_driver</title>
<polygon fill="#ff99cc" stroke="black" points="536,-36 440,-36 440,0 536,0 536,-36"/>
<text text-anchor="middle" x="488" y="-14.3" font-family="Times New Roman,serif" font-size="14.00">lighting_driver</text>
</g>
<!-- communication&#45;&gt;lighting_driver -->
<g id="edge4" class="edge">
<title>communication&#45;&gt;lighting_driver</title>
<path fill="none" stroke="black" stroke-dasharray="5,2" d="M257.94,-107.96C272.57,-92.98 295.27,-72.21 319,-60 353.52,-42.24 395.97,-31.71 429.56,-25.63"/>
<polygon fill="black" stroke="black" points="430.42,-29.04 439.68,-23.89 429.23,-22.14 430.42,-29.04"/>
<text text-anchor="middle" x="370.5" y="-63.8" font-family="Times New Roman,serif" font-size="14.00">lighting.cmd</text>
</g>
<!-- motor_driver -->
<g id="node5" class="node">
<title>motor_driver</title>
<polygon fill="#ff99cc" stroke="black" points="783,-160 693,-160 693,-124 783,-124 783,-160"/>
<text text-anchor="middle" x="738" y="-138.3" font-family="Times New Roman,serif" font-size="14.00">motor_driver</text>
</g>
<!-- robot_control&#45;&gt;motor_driver -->
<g id="edge5" class="edge">
<title>robot_control&#45;&gt;motor_driver</title>
<path fill="none" stroke="black" d="M535.65,-186.65C577.43,-177.39 638.73,-163.79 682.7,-154.04"/>
<polygon fill="black" stroke="black" points="683.64,-157.42 692.65,-151.84 682.13,-150.58 683.64,-157.42"/>
<text text-anchor="middle" x="614.5" y="-185.8" font-family="Times New Roman,serif" font-size="14.00">motors.speedsetpoint</text>
</g>
<!-- motor_driver&#45;&gt;communication -->
<g id="edge6" class="edge">
<title>motor_driver&#45;&gt;communication</title>
<path fill="none" stroke="black" stroke-dasharray="5,2" d="M692.75,-140.57C603.69,-137.7 402.73,-131.21 301.78,-127.95"/>
<polygon fill="black" stroke="black" points="301.85,-124.45 291.74,-127.62 301.62,-131.44 301.85,-124.45"/>
<text text-anchor="middle" x="488" y="-138.8" font-family="Times New Roman,serif" font-size="14.00">motors.telemtry</text>
</g>
<!-- imu_driver -->
<g id="node6" class="node">
<title>imu_driver</title>
<polygon fill="#ff99cc" stroke="black" points="77,-307 0,-307 0,-271 77,-271 77,-307"/>
<text text-anchor="middle" x="38.5" y="-285.3" font-family="Times New Roman,serif" font-size="14.00">imu_driver</text>
</g>
<!-- attitude_estimation -->
<g id="node7" class="node">
<title>attitude_estimation</title>
<polygon fill="#6699ff" stroke="black" points="301,-307 180,-307 180,-271 301,-271 301,-307"/>
<text text-anchor="middle" x="240.5" y="-285.3" font-family="Times New Roman,serif" font-size="14.00">attitude_estimation</text>
</g>
<!-- imu_driver&#45;&gt;attitude_estimation -->
<g id="edge7" class="edge">
<title>imu_driver&#45;&gt;attitude_estimation</title>
<path fill="none" stroke="black" d="M77.12,-289C103.04,-289 138.28,-289 169.3,-289"/>
<polygon fill="black" stroke="black" points="169.64,-292.5 179.64,-289 169.64,-285.5 169.64,-292.5"/>
<text text-anchor="middle" x="128.5" y="-292.8" font-family="Times New Roman,serif" font-size="14.00">sensors.imu</text>
</g>
<!-- attitude_estimation&#45;&gt;robot_control -->
<g id="edge9" class="edge">
<title>attitude_estimation&#45;&gt;robot_control</title>
<path fill="none" stroke="black" d="M301.27,-281.11C337.45,-274.81 383.82,-263.97 422,-246 435.25,-239.77 448.42,-230.55 459.4,-221.79"/>
<polygon fill="black" stroke="black" points="461.86,-224.3 467.34,-215.24 457.4,-218.91 461.86,-224.3"/>
<text text-anchor="middle" x="370.5" y="-280.8" font-family="Times New Roman,serif" font-size="14.00">estimation.attitude</text>
</g>
<!-- sonar_sensor -->
<g id="node8" class="node">
<title>sonar_sensor</title>
<polygon fill="#ff99cc" stroke="black" points="286.5,-253 194.5,-253 194.5,-217 286.5,-217 286.5,-253"/>
<text text-anchor="middle" x="240.5" y="-231.3" font-family="Times New Roman,serif" font-size="14.00">sonar_sensor</text>
</g>
<!-- sonar_sensor&#45;&gt;robot_control -->
<g id="edge8" class="edge">
<title>sonar_sensor&#45;&gt;robot_control</title>
<path fill="none" stroke="black" stroke-dasharray="5,2" d="M286.6,-231.02C323.26,-227.42 376.2,-221.4 422,-213 424.79,-212.49 427.63,-211.93 430.5,-211.34"/>
<polygon fill="black" stroke="black" points="431.25,-214.76 440.28,-209.21 429.76,-207.92 431.25,-214.76"/>
<text text-anchor="middle" x="370.5" y="-230.8" font-family="Times New Roman,serif" font-size="14.00">sensors.sonar</text>
</g>
</g>
<script type='text/javascript'><![CDATA[var hovermap = {"length": {"n_nodes": 8, "n_edges": 9}, "maps": [{"nodes": [1, 2, 3, 4, 0], "edges": [0, 2, 3, 5]}, {"nodes": [0, 4, 7, 6, 1], "edges": [0, 4, 7, 8]}, {"nodes": [0, 2], "edges": [2]}, {"nodes": [0, 3], "edges": [3]}, {"nodes": [1, 0, 4], "edges": [4, 5]}, {"nodes": [6, 5], "edges": [6]}, {"nodes": [5, 1, 6], "edges": [6, 8]}, {"nodes": [1, 7], "edges": [7]}]};hovermap.maps.forEach(function(e,t){let n=`node${t+1}`;document.getElementById(n).addEventListener('mouseover',function(){for(let e=0;e<hovermap.length.n_nodes;e++)hovermap.maps[t].nodes.includes(e)?document.getElementById(`node${e+1}`).style.opacity=1:document.getElementById(`node${e+1}`).style.opacity=.2;for(let n=0;n<hovermap.length.n_edges;n++)hovermap.maps[t].edges.includes(n)?document.getElementById(`edge${n+1}`).style.opacity=1:document.getElementById(`edge${n+1}`).style.opacity=.2}),document.getElementById(n).addEventListener('mouseout',function(){for(let e=0;e<hovermap.length.n_nodes;e++)document.getElementById(`node${e+1}`).style.opacity=1;for(let t=0;t<hovermap.length.n_edges;t++)document.getElementById(`edge${t+1}`).style.opacity=1})});]]></script>
</svg>
