<?xml version="1.0" encoding="UTF-8" standalone="no"?>
<!DOCTYPE svg PUBLIC "-//W3C//DTD SVG 1.1//EN"
 "http://www.w3.org/Graphics/SVG/1.1/DTD/svg11.dtd">
<!-- Generated by graphviz version 6.0.1 (20220911.1526)
 -->
<!-- Pages: 1 -->
<svg width="927pt" height="753pt"
 viewBox="0.00 0.00 926.54 752.64" xmlns="http://www.w3.org/2000/svg" xmlns:xlink="http://www.w3.org/1999/xlink">
<g id="graph0" class="graph" transform="scale(1 1) rotate(0) translate(4 748.64)">
<polygon fill="white" stroke="none" points="-4,4 -4,-748.64 922.54,-748.64 922.54,4 -4,4"/>
<!-- test_multi_channels -->
<g id="node1" class="node">
<title>test_multi_channels</title>
<ellipse fill="none" stroke="black" cx="93.59" cy="-307.64" rx="81.79" ry="18"/>
<text text-anchor="middle" x="93.59" y="-303.94" font-family="Times New Roman,serif" font-size="14.00">test_multi_channels</text>
</g>
<!-- test_multi_channels&#45;&gt;test_multi_channels -->
<g id="edge6" class="edge">
<title>test_multi_channels&#45;&gt;test_multi_channels</title>
<path fill="none" stroke="black" d="M84.84,-325.79C83.5,-335.18 86.41,-343.64 93.59,-343.64 97.97,-343.64 100.76,-340.5 101.97,-335.92"/>
<polygon fill="black" stroke="black" points="105.47,-335.92 102.34,-325.79 98.47,-335.66 105.47,-335.92"/>
<text text-anchor="middle" x="93.59" y="-347.44" font-family="Times New Roman,serif" font-size="14.00">test.uints</text>
</g>
<!-- test_multi_channels&#45;&gt;test_multi_channels -->
<g id="edge10" class="edge">
<title>test_multi_channels&#45;&gt;test_multi_channels</title>
<path fill="none" stroke="black" d="M79.05,-325.62C71.27,-342.84 76.12,-361.64 93.59,-361.64 107.79,-361.64 113.65,-349.23 111.18,-335.34"/>
<polygon fill="black" stroke="black" points="114.46,-334.12 108.13,-325.62 107.78,-336.21 114.46,-334.12"/>
<text text-anchor="middle" x="93.59" y="-365.44" font-family="Times New Roman,serif" font-size="14.00">test.uints</text>
</g>
<!-- test_multi_channels&#45;&gt;test_multi_channels -->
<g id="edge14" class="edge">
<title>test_multi_channels&#45;&gt;test_multi_channels</title>
<path fill="none" stroke="black" d="M75.48,-325.36C58.93,-349.76 64.97,-379.64 93.59,-379.64 118.86,-379.64 126.53,-356.35 116.59,-334.1"/>
<polygon fill="black" stroke="black" points="119.64,-332.38 111.7,-325.36 113.53,-335.79 119.64,-332.38"/>
<text text-anchor="middle" x="93.59" y="-383.44" font-family="Times New Roman,serif" font-size="14.00">test.uints</text>
</g>
<!-- test_prescaler -->
<g id="node2" class="node">
<title>test_prescaler</title>
<ellipse fill="none" stroke="black" cx="351.28" cy="-341.64" rx="61.19" ry="18"/>
<text text-anchor="middle" x="351.28" y="-337.94" font-family="Times New Roman,serif" font-size="14.00">test_prescaler</text>
</g>
<!-- test_multi_channels&#45;&gt;test_prescaler -->
<g id="edge7" class="edge">
<title>test_multi_channels&#45;&gt;test_prescaler</title>
<path fill="none" stroke="black" d="M134.07,-323.38C154.86,-330.83 181,-338.91 205.18,-342.64 234.61,-347.19 242.41,-342.83 272.18,-342.64 274.73,-342.63 277.33,-342.61 279.96,-342.58"/>
<polygon fill="black" stroke="black" points="280.19,-346.08 290.16,-342.49 280.13,-339.08 280.19,-346.08"/>
<text text-anchor="middle" x="238.68" y="-348.44" font-family="Times New Roman,serif" font-size="14.00">test.uints</text>
</g>
<!-- test_multi_channels&#45;&gt;test_prescaler -->
<g id="edge11" class="edge">
<title>test_multi_channels&#45;&gt;test_prescaler</title>
<path fill="none" stroke="black" d="M172.68,-312.36C203.76,-314.84 239.78,-318.47 272.18,-323.64 279.36,-324.79 286.86,-326.21 294.26,-327.76"/>
<polygon fill="black" stroke="black" points="293.72,-331.23 304.23,-329.93 295.2,-324.39 293.72,-331.23"/>
<text text-anchor="middle" x="238.68" y="-327.44" font-family="Times New Roman,serif" font-size="14.00">test.uints</text>
</g>
<!-- test_multi_channels&#45;&gt;test_prescaler -->
<g id="edge15" class="edge">
<title>test_multi_channels&#45;&gt;test_prescaler</title>
<path fill="none" stroke="black" d="M150.33,-294.57C185.8,-288.52 232.38,-284.79 272.18,-295.64 289.24,-300.29 306.38,-309.73 320.23,-318.84"/>
<polygon fill="black" stroke="black" points="318.6,-321.97 328.82,-324.74 322.56,-316.2 318.6,-321.97"/>
<text text-anchor="middle" x="238.68" y="-299.44" font-family="Times New Roman,serif" font-size="14.00">test.uints</text>
</g>
<!-- test_length -->
<g id="node5" class="node">
<title>test_length</title>
<ellipse fill="none" stroke="black" cx="868.5" cy="-381.64" rx="50.09" ry="18"/>
<text text-anchor="middle" x="868.5" y="-377.94" font-family="Times New Roman,serif" font-size="14.00">test_length</text>
</g>
<!-- test_multi_channels&#45;&gt;test_length -->
<g id="edge5" class="edge">
<title>test_multi_channels&#45;&gt;test_length</title>
<path fill="none" stroke="black" d="M98.52,-325.89C108.33,-366.35 138.1,-463.16 205.18,-502.64 247.84,-527.74 781.47,-513.91 800.45,-502.64 834.3,-482.55 852.28,-438.6 860.85,-409.57"/>
<polygon fill="black" stroke="black" points="864.31,-410.19 863.59,-399.62 857.56,-408.33 864.31,-410.19"/>
<text text-anchor="middle" x="463.87" y="-520.44" font-family="Times New Roman,serif" font-size="14.00">test.uints</text>
</g>
<!-- test_multi_channels&#45;&gt;test_length -->
<g id="edge9" class="edge">
<title>test_multi_channels&#45;&gt;test_length</title>
<path fill="none" stroke="black" d="M100.93,-325.79C114.1,-360.31 148.05,-434.68 205.18,-464.64 250.35,-488.33 784.94,-472.12 800.45,-464.64 824.66,-452.98 842.95,-427.89 854.27,-408.33"/>
<polygon fill="black" stroke="black" points="857.36,-409.98 859.12,-399.53 851.23,-406.61 857.36,-409.98"/>
<text text-anchor="middle" x="463.87" y="-480.44" font-family="Times New Roman,serif" font-size="14.00">test.uints</text>
</g>
<!-- test_multi_channels&#45;&gt;test_length -->
<g id="edge13" class="edge">
<title>test_multi_channels&#45;&gt;test_length</title>
<path fill="none" stroke="black" d="M113.81,-325.14C134.72,-343.18 169.91,-370.72 205.18,-385.64 240.59,-400.62 251.99,-397.31 290.18,-401.64 485.53,-423.81 536.27,-423.57 732.45,-410.64 762.87,-408.64 770.64,-408.02 800.45,-401.64 807.16,-400.21 814.16,-398.43 821.01,-396.54"/>
<polygon fill="black" stroke="black" points="822.24,-399.83 830.88,-393.7 820.31,-393.1 822.24,-399.83"/>
<text text-anchor="middle" x="463.87" y="-422.44" font-family="Times New Roman,serif" font-size="14.00">test.uints</text>
</g>
<!-- test_types -->
<g id="node6" class="node">
<title>test_types</title>
<ellipse fill="none" stroke="black" cx="623.91" cy="-104.64" rx="48.19" ry="18"/>
<text text-anchor="middle" x="623.91" y="-100.94" font-family="Times New Roman,serif" font-size="14.00">test_types</text>
</g>
<!-- test_multi_channels&#45;&gt;test_types -->
<g id="edge8" class="edge">
<title>test_multi_channels&#45;&gt;test_types</title>
<path fill="none" stroke="black" d="M106.63,-289.66C124.87,-263.81 162,-216.46 205.18,-190.64 265.95,-154.31 469.03,-124.27 567.9,-111.39"/>
<polygon fill="black" stroke="black" points="568.52,-114.84 577.99,-110.09 567.62,-107.9 568.52,-114.84"/>
<text text-anchor="middle" x="351.28" y="-164.44" font-family="Times New Roman,serif" font-size="14.00">test.uints</text>
</g>
<!-- test_multi_channels&#45;&gt;test_types -->
<g id="edge12" class="edge">
<title>test_multi_channels&#45;&gt;test_types</title>
<path fill="none" stroke="black" d="M104.8,-289.59C122.24,-260.01 160.26,-200.72 205.18,-162.64 237.79,-135 248.91,-128.75 290.18,-117.64 384.77,-92.18 499.9,-94.73 566.95,-99.36"/>
<polygon fill="black" stroke="black" points="567.06,-102.88 577.29,-100.12 567.57,-95.9 567.06,-102.88"/>
<text text-anchor="middle" x="351.28" y="-121.44" font-family="Times New Roman,serif" font-size="14.00">test.uints</text>
</g>
<!-- test_multi_channels&#45;&gt;test_types -->
<g id="edge16" class="edge">
<title>test_multi_channels&#45;&gt;test_types</title>
<path fill="none" stroke="black" d="M153.09,-295.12C262.91,-271.56 489.67,-222.63 497.37,-218.64 540.27,-196.45 579.73,-155.9 602.55,-129.62"/>
<polygon fill="black" stroke="black" points="605.26,-131.84 609.09,-121.96 599.94,-127.3 605.26,-131.84"/>
<text text-anchor="middle" x="351.28" y="-268.44" font-family="Times New Roman,serif" font-size="14.00">test.uints</text>
</g>
<!-- test_prescaler&#45;&gt;test_multi_channels -->
<g id="edge21" class="edge">
<title>test_prescaler&#45;&gt;test_multi_channels</title>
<path fill="none" stroke="black" d="M311.75,-355.48C282.32,-364.14 240.87,-372.16 205.18,-363.64 177.89,-357.13 149.72,-342.72 128.63,-330.16"/>
<polygon fill="black" stroke="black" points="130.41,-327.14 120.06,-324.91 126.76,-333.11 130.41,-327.14"/>
<text text-anchor="middle" x="238.68" y="-370.44" font-family="Times New Roman,serif" font-size="14.00">test.uints</text>
</g>
<!-- test_prescaler&#45;&gt;test_prescaler -->
<g id="edge22" class="edge">
<title>test_prescaler&#45;&gt;test_prescaler</title>
<path fill="none" stroke="black" d="M331.33,-358.68C327.25,-368.5 333.9,-377.64 351.28,-377.64 362.14,-377.64 368.81,-374.07 371.29,-368.99"/>
<polygon fill="black" stroke="black" points="374.79,-368.66 371.23,-358.68 367.79,-368.7 374.79,-368.66"/>
<text text-anchor="middle" x="351.28" y="-381.44" font-family="Times New Roman,serif" font-size="14.00">test.uints</text>
</g>
<!-- test_prescaler&#45;&gt;test_length -->
<g id="edge20" class="edge">
<title>test_prescaler&#45;&gt;test_length</title>
<path fill="none" stroke="black" d="M396.01,-354.14C407.2,-357.29 419.22,-360.63 430.37,-363.64 468.04,-373.82 476.68,-380.55 515.37,-385.64 618.96,-399.28 645.97,-387.2 750.45,-387.64 772.68,-387.74 778.25,-388.63 800.45,-387.64 803.51,-387.51 806.64,-387.33 809.79,-387.14"/>
<polygon fill="black" stroke="black" points="810.19,-390.62 819.92,-386.43 809.7,-383.63 810.19,-390.62"/>
<text text-anchor="middle" x="623.91" y="-395.44" font-family="Times New Roman,serif" font-size="14.00">test.uints</text>
</g>
<!-- test_prescaler&#45;&gt;test_types -->
<g id="edge23" class="edge">
<title>test_prescaler&#45;&gt;test_types</title>
<path fill="none" stroke="black" d="M404.47,-332.56C439.75,-325.64 482.51,-315.48 497.37,-304.64 558.56,-260.04 596.8,-175.69 613.36,-132.17"/>
<polygon fill="black" stroke="black" points="616.74,-133.12 616.92,-122.53 610.17,-130.69 616.74,-133.12"/>
<text text-anchor="middle" x="463.87" y="-330.44" font-family="Times New Roman,serif" font-size="14.00">test.uints</text>
</g>
<!-- test_single_pub_sub -->
<g id="node3" class="node">
<title>test_single_pub_sub</title>
<ellipse fill="none" stroke="black" cx="93.59" cy="-639.64" rx="85.59" ry="18"/>
<text text-anchor="middle" x="93.59" y="-635.94" font-family="Times New Roman,serif" font-size="14.00">test_single_pub_sub</text>
</g>
<!-- test_single_pub_sub&#45;&gt;test_single_pub_sub -->
<g id="edge29" class="edge">
<title>test_single_pub_sub&#45;&gt;test_single_pub_sub</title>
<path fill="none" stroke="black" d="M67.69,-657.05C62.85,-666.73 71.49,-675.64 93.59,-675.64 107.41,-675.64 115.96,-672.16 119.25,-667.19"/>
<polygon fill="black" stroke="black" points="122.75,-667.13 119.49,-657.05 115.76,-666.96 122.75,-667.13"/>
<text text-anchor="middle" x="93.59" y="-679.44" font-family="Times New Roman,serif" font-size="14.00">sensors.imu</text>
</g>
<!-- test_peek -->
<g id="node7" class="node">
<title>test_peek</title>
<ellipse fill="none" stroke="black" cx="351.28" cy="-684.64" rx="45.49" ry="18"/>
<text text-anchor="middle" x="351.28" y="-680.94" font-family="Times New Roman,serif" font-size="14.00">test_peek</text>
</g>
<!-- test_single_pub_sub&#45;&gt;test_peek -->
<g id="edge27" class="edge">
<title>test_single_pub_sub&#45;&gt;test_peek</title>
<path fill="none" stroke="black" d="M138.47,-655.02C158.56,-661.47 182.84,-668.43 205.18,-672.64 234.81,-678.22 268.32,-681.21 295.67,-682.81"/>
<polygon fill="black" stroke="black" points="295.65,-686.31 305.83,-683.35 296.03,-679.32 295.65,-686.31"/>
<text text-anchor="middle" x="238.68" y="-684.44" font-family="Times New Roman,serif" font-size="14.00">sensors.imu</text>
</g>
<!-- test_single_pub_multi_sub -->
<g id="node8" class="node">
<title>test_single_pub_multi_sub</title>
<ellipse fill="none" stroke="black" cx="623.91" cy="-640.64" rx="108.58" ry="18"/>
<text text-anchor="middle" x="623.91" y="-636.94" font-family="Times New Roman,serif" font-size="14.00">test_single_pub_multi_sub</text>
</g>
<!-- test_single_pub_sub&#45;&gt;test_single_pub_multi_sub -->
<g id="edge28" class="edge">
<title>test_single_pub_sub&#45;&gt;test_single_pub_multi_sub</title>
<path fill="none" stroke="black" d="M179.46,-639.45C260.97,-639.3 387.59,-639.2 497.37,-639.64 499.95,-639.65 502.55,-639.66 505.18,-639.68"/>
<polygon fill="black" stroke="black" points="505.38,-643.18 515.39,-639.73 505.41,-636.18 505.38,-643.18"/>
<text text-anchor="middle" x="351.28" y="-642.44" font-family="Times New Roman,serif" font-size="14.00">sensors.imu</text>
</g>
<!-- test_unused_messages -->
<g id="node4" class="node">
<title>test_unused_messages</title>
<ellipse fill="none" stroke="black" cx="93.59" cy="-726.64" rx="93.68" ry="18"/>
<text text-anchor="middle" x="93.59" y="-722.94" font-family="Times New Roman,serif" font-size="14.00">test_unused_messages</text>
</g>
<!-- test_length&#45;&gt;test_multi_channels -->
<g id="edge2" class="edge">
<title>test_length&#45;&gt;test_multi_channels</title>
<path fill="none" stroke="black" d="M866.37,-363.54C861.77,-307.7 839.17,-138.24 732.45,-77.64 528.03,38.45 391.31,23.96 205.18,-119.64 150.73,-161.65 117.88,-238.67 103.39,-279.88"/>
<polygon fill="black" stroke="black" points="100.01,-278.95 100.09,-289.55 106.63,-281.21 100.01,-278.95"/>
<text text-anchor="middle" x="463.87" y="-9.44" font-family="Times New Roman,serif" font-size="14.00">test.uints</text>
</g>
<!-- test_length&#45;&gt;test_prescaler -->
<g id="edge3" class="edge">
<title>test_length&#45;&gt;test_prescaler</title>
<path fill="none" stroke="black" d="M819.38,-377.66C793.6,-375.54 761.3,-372.92 732.45,-370.64 623.58,-362.06 497.13,-352.49 420.98,-346.78"/>
<polygon fill="black" stroke="black" points="420.81,-343.25 410.58,-346 420.29,-350.23 420.81,-343.25"/>
<text text-anchor="middle" x="623.91" y="-374.44" font-family="Times New Roman,serif" font-size="14.00">test.uints</text>
</g>
<!-- test_length&#45;&gt;test_length -->
<g id="edge1" class="edge">
<title>test_length&#45;&gt;test_length</title>
<path fill="none" stroke="black" d="M852.01,-398.68C848.65,-408.5 854.14,-417.64 868.5,-417.64 877.47,-417.64 882.98,-414.07 885.03,-408.99"/>
<polygon fill="black" stroke="black" points="888.53,-408.66 884.99,-398.68 881.53,-408.69 888.53,-408.66"/>
<text text-anchor="middle" x="868.5" y="-421.44" font-family="Times New Roman,serif" font-size="14.00">test.uints</text>
</g>
<!-- test_length&#45;&gt;test_types -->
<g id="edge4" class="edge">
<title>test_length&#45;&gt;test_types</title>
<path fill="none" stroke="black" d="M861.7,-363.65C852.12,-335.83 830.98,-281.65 800.45,-243.64 759.89,-193.14 697.75,-149.48 659.32,-125.17"/>
<polygon fill="black" stroke="black" points="660.89,-122.02 650.56,-119.7 657.19,-127.96 660.89,-122.02"/>
<text text-anchor="middle" x="775.45" y="-247.44" font-family="Times New Roman,serif" font-size="14.00">test.uints</text>
</g>
<!-- test_types&#45;&gt;test_multi_channels -->
<g id="edge31" class="edge">
<title>test_types&#45;&gt;test_multi_channels</title>
<path fill="none" stroke="black" d="M588.7,-117.05C547.1,-132.08 474.71,-158.08 412.37,-179.64 358.24,-198.36 343.57,-199.87 290.18,-220.64 237.18,-241.27 177.65,-268.32 138.34,-286.75"/>
<polygon fill="black" stroke="black" points="136.36,-283.82 128.8,-291.24 139.34,-290.15 136.36,-283.82"/>
<text text-anchor="middle" x="351.28" y="-224.44" font-family="Times New Roman,serif" font-size="14.00">test.uints</text>
</g>
<!-- test_types&#45;&gt;test_prescaler -->
<g id="edge32" class="edge">
<title>test_types&#45;&gt;test_prescaler</title>
<path fill="none" stroke="black" d="M614.05,-122.52C596.52,-156.03 554.14,-228.31 497.37,-266.64 471.72,-283.96 458.25,-272.2 430.37,-285.64 412.41,-294.3 394.19,-307.09 379.88,-318.25"/>
<polygon fill="black" stroke="black" points="377.56,-315.62 371.93,-324.6 381.93,-321.09 377.56,-315.62"/>
<text text-anchor="middle" x="463.87" y="-289.44" font-family="Times New Roman,serif" font-size="14.00">test.uints</text>
</g>
<!-- test_types&#45;&gt;test_length -->
<g id="edge30" class="edge">
<title>test_types&#45;&gt;test_length</title>
<path fill="none" stroke="black" d="M638.43,-122.09C660.99,-151.02 708.04,-210.5 750.45,-258.64 781.4,-293.77 819,-332.65 843.08,-357.11"/>
<polygon fill="black" stroke="black" points="840.88,-359.86 850.4,-364.52 845.86,-354.94 840.88,-359.86"/>
<text text-anchor="middle" x="775.45" y="-313.44" font-family="Times New Roman,serif" font-size="14.00">test.uints</text>
</g>
<!-- test_types&#45;&gt;test_types -->
<g id="edge33" class="edge">
<title>test_types&#45;&gt;test_types</title>
<path fill="none" stroke="black" d="M619.34,-122.79C618.64,-132.18 620.16,-140.64 623.91,-140.64 626.2,-140.64 627.66,-137.5 628.29,-132.92"/>
<polygon fill="black" stroke="black" points="631.79,-132.86 628.48,-122.79 624.79,-132.73 631.79,-132.86"/>
<text text-anchor="middle" x="623.91" y="-144.44" font-family="Times New Roman,serif" font-size="14.00">test.uints</text>
</g>
<!-- test_types&#45;&gt;test_types -->
<g id="edge34" class="edge">
<title>test_types&#45;&gt;test_types</title>
<path fill="none" stroke="black" d="M616.32,-122.62C612.26,-139.84 614.79,-158.64 623.91,-158.64 631.26,-158.64 634.33,-146.47 633.13,-132.74"/>
<polygon fill="black" stroke="black" points="636.55,-131.94 631.51,-122.62 629.64,-133.05 636.55,-131.94"/>
<text text-anchor="middle" x="623.91" y="-162.44" font-family="Times New Roman,serif" font-size="14.00">test.ints</text>
</g>
<!-- test_types&#45;&gt;test_types -->
<g id="edge35" class="edge">
<title>test_types&#45;&gt;test_types</title>
<path fill="none" stroke="black" d="M614.45,-122.36C605.81,-146.76 608.97,-176.64 623.91,-176.64 636.93,-176.64 641,-153.96 636.13,-131.99"/>
<polygon fill="black" stroke="black" points="639.49,-131.01 633.37,-122.36 632.75,-132.93 639.49,-131.01"/>
<text text-anchor="middle" x="623.91" y="-180.44" font-family="Times New Roman,serif" font-size="14.00">test.floats</text>
</g>
<!-- test_types&#45;&gt;test_types -->
<g id="edge36" class="edge">
<title>test_types&#45;&gt;test_types</title>
<path fill="none" stroke="black" d="M613.13,-122.31C599.4,-153.49 603,-194.64 623.91,-194.64 642.79,-194.64 647.56,-161.14 638.22,-131.69"/>
<polygon fill="black" stroke="black" points="641.49,-130.44 634.7,-122.31 634.94,-132.9 641.49,-130.44"/>
<text text-anchor="middle" x="623.91" y="-198.44" font-family="Times New Roman,serif" font-size="14.00">test.strings</text>
</g>
<!-- test_types&#45;&gt;test_types -->
<g id="edge37" class="edge">
<title>test_types&#45;&gt;test_types</title>
<path fill="none" stroke="black" d="M612.2,-122.18C593,-159.95 596.9,-212.64 623.91,-212.64 648.71,-212.64 654.03,-168.24 639.88,-131.74"/>
<polygon fill="black" stroke="black" points="642.89,-129.89 635.62,-122.18 636.5,-132.74 642.89,-129.89"/>
<text text-anchor="middle" x="623.91" y="-216.44" font-family="Times New Roman,serif" font-size="14.00">test.bools</text>
</g>
<!-- test_types&#45;&gt;test_types -->
<g id="edge38" class="edge">
<title>test_types&#45;&gt;test_types</title>
<path fill="none" stroke="black" d="M611.48,-122.11C586.62,-166.33 590.76,-230.64 623.91,-230.64 654.86,-230.64 660.53,-174.59 640.91,-131.16"/>
<polygon fill="black" stroke="black" points="643.98,-129.46 636.34,-122.11 637.73,-132.62 643.98,-129.46"/>
<text text-anchor="middle" x="623.91" y="-234.44" font-family="Times New Roman,serif" font-size="14.00">test.enums</text>
</g>
<!-- test_peek&#45;&gt;test_single_pub_sub -->
<g id="edge19" class="edge">
<title>test_peek&#45;&gt;test_single_pub_sub</title>
<path fill="none" stroke="black" d="M318.84,-671.91C304.78,-666.7 287.87,-661.1 272.18,-657.64 244.83,-651.61 214.64,-647.6 187.05,-644.92"/>
<polygon fill="black" stroke="black" points="187.28,-641.43 177,-644 186.64,-648.4 187.28,-641.43"/>
<text text-anchor="middle" x="238.68" y="-661.44" font-family="Times New Roman,serif" font-size="14.00">sensors.imu</text>
</g>
<!-- test_peek&#45;&gt;test_peek -->
<g id="edge17" class="edge">
<title>test_peek&#45;&gt;test_peek</title>
<path fill="none" stroke="black" d="M331.66,-700.93C326.92,-711.03 333.47,-720.64 351.28,-720.64 362.69,-720.64 369.47,-716.7 371.63,-711.21"/>
<polygon fill="black" stroke="black" points="375.1,-710.66 370.9,-700.93 368.12,-711.16 375.1,-710.66"/>
<text text-anchor="middle" x="351.28" y="-724.44" font-family="Times New Roman,serif" font-size="14.00">sensors.imu</text>
</g>
<!-- test_peek&#45;&gt;test_single_pub_multi_sub -->
<g id="edge18" class="edge">
<title>test_peek&#45;&gt;test_single_pub_multi_sub</title>
<path fill="none" stroke="black" d="M396.65,-682.9C425.5,-681.29 463.84,-678.26 497.37,-672.64 517.87,-669.21 539.92,-664.08 559.74,-658.94"/>
<polygon fill="black" stroke="black" points="560.8,-662.28 569.57,-656.34 559.01,-655.51 560.8,-662.28"/>
<text text-anchor="middle" x="463.87" y="-683.44" font-family="Times New Roman,serif" font-size="14.00">sensors.imu</text>
</g>
<!-- test_single_pub_multi_sub&#45;&gt;test_single_pub_sub -->
<g id="edge26" class="edge">
<title>test_single_pub_multi_sub&#45;&gt;test_single_pub_sub</title>
<path fill="none" stroke="black" d="M574.66,-624.57C532.41,-611.4 469.09,-593.8 412.37,-586.64 358.49,-579.84 344.02,-579.49 290.18,-586.64 240.99,-593.18 186.63,-608.6 147.73,-621.13"/>
<polygon fill="black" stroke="black" points="146.61,-617.82 138.19,-624.25 148.78,-624.47 146.61,-617.82"/>
<text text-anchor="middle" x="351.28" y="-590.44" font-family="Times New Roman,serif" font-size="14.00">sensors.imu</text>
</g>
<!-- test_single_pub_multi_sub&#45;&gt;test_peek -->
<g id="edge24" class="edge">
<title>test_single_pub_multi_sub&#45;&gt;test_peek</title>
<path fill="none" stroke="black" d="M515.63,-641.98C487.63,-643.93 457.66,-647.46 430.37,-653.64 416.88,-656.7 402.67,-661.74 390.12,-666.88"/>
<polygon fill="black" stroke="black" points="388.73,-663.67 380.89,-670.8 391.46,-670.12 388.73,-663.67"/>
<text text-anchor="middle" x="463.87" y="-657.44" font-family="Times New Roman,serif" font-size="14.00">sensors.imu</text>
</g>
<!-- test_single_pub_multi_sub&#45;&gt;test_single_pub_multi_sub -->
<g id="edge25" class="edge">
<title>test_single_pub_multi_sub&#45;&gt;test_single_pub_multi_sub</title>
<path fill="none" stroke="black" d="M596.67,-658.42C592.04,-667.96 601.12,-676.64 623.91,-676.64 637.8,-676.64 646.6,-673.42 650.3,-668.74"/>
<polygon fill="black" stroke="black" points="653.82,-668.68 651.15,-658.42 646.84,-668.1 653.82,-668.68"/>
<text text-anchor="middle" x="623.91" y="-680.44" font-family="Times New Roman,serif" font-size="14.00">sensors.imu</text>
</g>
</g>
</svg>
