<?xml version="1.0" encoding="UTF-8" standalone="no"?>
<!DOCTYPE svg PUBLIC "-//W3C//DTD SVG 1.1//EN"
 "http://www.w3.org/Graphics/SVG/1.1/DTD/svg11.dtd">
<!-- Generated by graphviz version 6.0.1 (20220911.1526)
 -->
<!-- Pages: 1 -->
<svg width="790pt" height="217pt"
 viewBox="0.00 0.00 790.00 217.00" xmlns="http://www.w3.org/2000/svg" xmlns:xlink="http://www.w3.org/1999/xlink">
<g id="graph0" class="graph" transform="scale(1 1) rotate(0) translate(4 213)">
<polygon fill="white" stroke="none" points="-4,4 -4,-213 786,-213 786,4 -4,4"/>
<!-- communication -->
<g id="node1" class="node">
<title>communication</title>
<polygon fill="#99ffcc" stroke="black" points="291.5,-177 189.5,-177 189.5,-141 291.5,-141 291.5,-177"/>
<text text-anchor="middle" x="240.5" y="-155.3" font-family="Times New Roman,serif" font-size="14.00">communication</text>
</g>
<!-- robot_control -->
<g id="node2" class="node">
<title>robot_control</title>
<polygon fill="#99ffcc" stroke="black" points="535,-139 440,-139 440,-103 535,-103 535,-139"/>
<text text-anchor="middle" x="487.5" y="-117.3" font-family="Times New Roman,serif" font-size="14.00">robot_control</text>
</g>
<!-- communication&#45;&gt;robot_control -->
<g id="edge1" class="edge">
<title>communication&#45;&gt;robot_control</title>
<path fill="none" stroke="black" stroke-dasharray="5,2" d="M291.78,-146.48C300.81,-144.47 310.16,-142.55 319,-141 355.57,-134.59 397,-129.62 429.51,-126.24"/>
<polygon fill="black" stroke="black" points="430.14,-129.7 439.73,-125.2 429.43,-122.73 430.14,-129.7"/>
<text text-anchor="middle" x="370.5" y="-144.8" font-family="Times New Roman,serif" font-size="14.00">system.state</text>
</g>
<!-- communication&#45;&gt;robot_control -->
<g id="edge2" class="edge">
<title>communication&#45;&gt;robot_control</title>
<path fill="none" stroke="black" stroke-dasharray="5,2" d="M261.83,-140.8C276.55,-128.91 297.55,-114.42 319,-108 354.83,-97.27 396.79,-100.55 429.75,-106.5"/>
<polygon fill="black" stroke="black" points="429.2,-109.96 439.68,-108.42 430.52,-103.08 429.2,-109.96"/>
<text text-anchor="middle" x="370.5" y="-111.8" font-family="Times New Roman,serif" font-size="14.00">usercmd.setpoints</text>
</g>
<!-- robot_control&#45;&gt;communication -->
<g id="edge4" class="edge">
<title>robot_control&#45;&gt;communication</title>
<path fill="none" stroke="black" d="M460.1,-139.06C448.87,-145.73 435.31,-152.5 422,-156 382.96,-166.26 337.52,-166.95 302,-165.11"/>
<polygon fill="black" stroke="black" points="301.98,-161.6 291.78,-164.5 301.56,-168.59 301.98,-161.6"/>
<text text-anchor="middle" x="370.5" y="-168.8" font-family="Times New Roman,serif" font-size="14.00">motors.telemtry</text>
</g>
<!-- motor_driver -->
<g id="node3" class="node">
<title>motor_driver</title>
<polygon fill="#ff99cc" stroke="black" points="782,-192 692,-192 692,-156 782,-156 782,-192"/>
<text text-anchor="middle" x="737" y="-170.3" font-family="Times New Roman,serif" font-size="14.00">motor_driver</text>
</g>
<!-- robot_control&#45;&gt;motor_driver -->
<g id="edge3" class="edge">
<title>robot_control&#45;&gt;motor_driver</title>
<path fill="none" stroke="black" d="M535.05,-130.97C576.75,-139.9 637.93,-153 681.81,-162.4"/>
<polygon fill="black" stroke="black" points="681.23,-165.85 691.74,-164.52 682.69,-159 681.23,-165.85"/>
<text text-anchor="middle" x="613.5" y="-162.8" font-family="Times New Roman,serif" font-size="14.00">motors.speedsetpoint</text>
</g>
<!-- motor_driver&#45;&gt;communication -->
<g id="edge5" class="edge">
<title>motor_driver&#45;&gt;communication</title>
<path fill="none" stroke="black" d="M691.83,-180.22C615.34,-189.85 453.49,-205.16 319,-184 312.68,-183.01 306.16,-181.58 299.73,-179.91"/>
<polygon fill="black" stroke="black" points="300.29,-176.43 289.72,-177.1 298.4,-183.17 300.29,-176.43"/>
<text text-anchor="middle" x="487.5" y="-197.8" font-family="Times New Roman,serif" font-size="14.00">motors.telemtry</text>
</g>
<!-- imu_driver -->
<g id="node4" class="node">
<title>imu_driver</title>
<polygon fill="#ff99cc" stroke="black" points="77,-90 0,-90 0,-54 77,-54 77,-90"/>
<text text-anchor="middle" x="38.5" y="-68.3" font-family="Times New Roman,serif" font-size="14.00">imu_driver</text>
</g>
<!-- attitude_estimation -->
<g id="node5" class="node">
<title>attitude_estimation</title>
<polygon fill="#6699ff" stroke="black" points="301,-90 180,-90 180,-54 301,-54 301,-90"/>
<text text-anchor="middle" x="240.5" y="-68.3" font-family="Times New Roman,serif" font-size="14.00">attitude_estimation</text>
</g>
<!-- imu_driver&#45;&gt;attitude_estimation -->
<g id="edge6" class="edge">
<title>imu_driver&#45;&gt;attitude_estimation</title>
<path fill="none" stroke="black" d="M77.12,-72C103.04,-72 138.28,-72 169.3,-72"/>
<polygon fill="black" stroke="black" points="169.64,-75.5 179.64,-72 169.64,-68.5 169.64,-75.5"/>
<text text-anchor="middle" x="128.5" y="-75.8" font-family="Times New Roman,serif" font-size="14.00">sensors.imu</text>
</g>
<!-- attitude_estimation&#45;&gt;robot_control -->
<g id="edge8" class="edge">
<title>attitude_estimation&#45;&gt;robot_control</title>
<path fill="none" stroke="black" d="M301.34,-67.56C337.13,-66.72 383.06,-68.85 422,-81 433.58,-84.61 445.17,-90.8 455.26,-97.24"/>
<polygon fill="black" stroke="black" points="453.46,-100.24 463.71,-102.91 457.36,-94.43 453.46,-100.24"/>
<text text-anchor="middle" x="370.5" y="-84.8" font-family="Times New Roman,serif" font-size="14.00">estimation.attitude</text>
</g>
<!-- sonar_sensor -->
<g id="node6" class="node">
<title>sonar_sensor</title>
<polygon fill="#ff99cc" stroke="black" points="286.5,-36 194.5,-36 194.5,0 286.5,0 286.5,-36"/>
<text text-anchor="middle" x="240.5" y="-14.3" font-family="Times New Roman,serif" font-size="14.00">sonar_sensor</text>
</g>
<!-- sonar_sensor&#45;&gt;robot_control -->
<g id="edge7" class="edge">
<title>sonar_sensor&#45;&gt;robot_control</title>
<path fill="none" stroke="black" stroke-dasharray="5,2" d="M286.86,-17.66C325.1,-19.2 380.13,-25.84 422,-49 441.45,-59.76 458.05,-78.66 469.53,-94.4"/>
<polygon fill="black" stroke="black" points="466.77,-96.56 475.37,-102.75 472.5,-92.55 466.77,-96.56"/>
<text text-anchor="middle" x="370.5" y="-52.8" font-family="Times New Roman,serif" font-size="14.00">sensors.sonar</text>
</g>
</g>
</svg>
