<?xml version="1.0" encoding="UTF-8" standalone="no"?>
<!DOCTYPE svg PUBLIC "-//W3C//DTD SVG 1.1//EN"
 "http://www.w3.org/Graphics/SVG/1.1/DTD/svg11.dtd">
<!-- Generated by graphviz version 6.0.1 (20220911.1526)
 -->
<!-- Pages: 1 -->
<svg width="1147pt" height="627pt"
 viewBox="0.00 0.00 1147.00 626.51" xmlns="http://www.w3.org/2000/svg" xmlns:xlink="http://www.w3.org/1999/xlink">
<g id="graph0" class="graph" transform="scale(1 1) rotate(0) translate(4 622.51)">
<polygon fill="white" stroke="none" points="-4,4 -4,-622.51 1143,-622.51 1143,4 -4,4"/>
<!-- test_length -->
<g id="node1" class="node">
<title>test_length</title>
<polygon fill="none" stroke="black" points="77,-314.51 0,-314.51 0,-278.51 77,-278.51 77,-314.51"/>
<text text-anchor="middle" x="38.5" y="-292.81" font-family="Times New Roman,serif" font-size="14.00">test_length</text>
</g>
<!-- test_length&#45;&gt;test_length -->
<g id="edge1" class="edge">
<title>test_length&#45;&gt;test_length</title>
<path fill="none" stroke="black" d="M23.76,-314.66C21.49,-324.05 26.4,-332.51 38.5,-332.51 45.87,-332.51 50.58,-329.37 52.61,-324.79"/>
<polygon fill="black" stroke="black" points="56.12,-324.86 53.24,-314.66 49.13,-324.43 56.12,-324.86"/>
<text text-anchor="middle" x="38.5" y="-336.31" font-family="Times New Roman,serif" font-size="14.00">test.uints</text>
</g>
<!-- test_multi_channels -->
<g id="node2" class="node">
<title>test_multi_channels</title>
<polygon fill="none" stroke="black" points="289,-314.51 163,-314.51 163,-278.51 289,-278.51 289,-314.51"/>
<text text-anchor="middle" x="226" y="-292.81" font-family="Times New Roman,serif" font-size="14.00">test_multi_channels</text>
</g>
<!-- test_length&#45;&gt;test_multi_channels -->
<g id="edge2" class="edge">
<title>test_length&#45;&gt;test_multi_channels</title>
<path fill="none" stroke="black" d="M77.04,-296.51C98.72,-296.51 126.73,-296.51 152.54,-296.51"/>
<polygon fill="black" stroke="black" points="152.68,-300.01 162.68,-296.51 152.68,-293.01 152.68,-300.01"/>
<text text-anchor="middle" x="120" y="-300.31" font-family="Times New Roman,serif" font-size="14.00">test.uints</text>
</g>
<!-- test_prescaler -->
<g id="node3" class="node">
<title>test_prescaler</title>
<polygon fill="none" stroke="black" points="634,-405.51 540,-405.51 540,-369.51 634,-369.51 634,-405.51"/>
<text text-anchor="middle" x="587" y="-383.81" font-family="Times New Roman,serif" font-size="14.00">test_prescaler</text>
</g>
<!-- test_length&#45;&gt;test_prescaler -->
<g id="edge3" class="edge">
<title>test_length&#45;&gt;test_prescaler</title>
<path fill="none" stroke="black" d="M41.16,-314.54C46.05,-363.24 62.18,-495.55 95,-521.51 243.85,-639.24 362.09,-623.71 522,-521.51 558.5,-498.18 574.65,-447.76 581.45,-415.85"/>
<polygon fill="black" stroke="black" points="584.93,-416.29 583.41,-405.81 578.06,-414.95 584.93,-416.29"/>
<text text-anchor="middle" x="332" y="-607.31" font-family="Times New Roman,serif" font-size="14.00">test.uints</text>
</g>
<!-- test_types -->
<g id="node4" class="node">
<title>test_types</title>
<polygon fill="none" stroke="black" points="449,-77.51 375,-77.51 375,-41.51 449,-41.51 449,-77.51"/>
<text text-anchor="middle" x="412" y="-55.81" font-family="Times New Roman,serif" font-size="14.00">test_types</text>
</g>
<!-- test_length&#45;&gt;test_types -->
<g id="edge4" class="edge">
<title>test_length&#45;&gt;test_types</title>
<path fill="none" stroke="black" d="M39.63,-278.39C40.88,-241.54 48.96,-157.32 95,-109.51 165.18,-36.64 295.47,-42.15 364.8,-51.4"/>
<polygon fill="black" stroke="black" points="364.59,-54.9 374.98,-52.84 365.57,-47.97 364.59,-54.9"/>
<text text-anchor="middle" x="226" y="-69.31" font-family="Times New Roman,serif" font-size="14.00">test.uints</text>
</g>
<!-- test_multi_channels&#45;&gt;test_length -->
<g id="edge5" class="edge">
<title>test_multi_channels&#45;&gt;test_length</title>
<path fill="none" stroke="black" d="M162.76,-279.54C141.27,-275.76 117.05,-273.84 95,-277.51 92.36,-277.95 89.68,-278.5 86.99,-279.13"/>
<polygon fill="black" stroke="black" points="86.04,-275.76 77.29,-281.73 87.85,-282.52 86.04,-275.76"/>
<text text-anchor="middle" x="120" y="-281.31" font-family="Times New Roman,serif" font-size="14.00">test.uints</text>
</g>
<!-- test_multi_channels&#45;&gt;test_length -->
<g id="edge9" class="edge">
<title>test_multi_channels&#45;&gt;test_length</title>
<path fill="none" stroke="black" d="M198.04,-278.37C171.7,-262.97 130.51,-245.05 95,-256.51 84.83,-259.79 74.95,-265.71 66.41,-272.01"/>
<polygon fill="black" stroke="black" points="64.06,-269.41 58.36,-278.34 68.39,-274.91 64.06,-269.41"/>
<text text-anchor="middle" x="120" y="-260.31" font-family="Times New Roman,serif" font-size="14.00">test.uints</text>
</g>
<!-- test_multi_channels&#45;&gt;test_length -->
<g id="edge13" class="edge">
<title>test_multi_channels&#45;&gt;test_length</title>
<path fill="none" stroke="black" d="M162.76,-313.48C141.27,-317.26 117.05,-319.18 95,-315.51 92.36,-315.07 89.68,-314.52 86.99,-313.89"/>
<polygon fill="black" stroke="black" points="87.85,-310.5 77.29,-311.29 86.04,-317.26 87.85,-310.5"/>
<text text-anchor="middle" x="120" y="-320.31" font-family="Times New Roman,serif" font-size="14.00">test.uints</text>
</g>
<!-- test_multi_channels&#45;&gt;test_multi_channels -->
<g id="edge6" class="edge">
<title>test_multi_channels&#45;&gt;test_multi_channels</title>
<path fill="none" stroke="black" d="M219.61,-314.66C218.62,-324.05 220.76,-332.51 226,-332.51 229.2,-332.51 231.24,-329.37 232.12,-324.79"/>
<polygon fill="black" stroke="black" points="235.62,-324.75 232.39,-314.66 228.62,-324.56 235.62,-324.75"/>
<text text-anchor="middle" x="226" y="-336.31" font-family="Times New Roman,serif" font-size="14.00">test.uints</text>
</g>
<!-- test_multi_channels&#45;&gt;test_multi_channels -->
<g id="edge10" class="edge">
<title>test_multi_channels&#45;&gt;test_multi_channels</title>
<path fill="none" stroke="black" d="M215.29,-314.77C209.73,-331.91 213.3,-350.51 226,-350.51 236.22,-350.51 240.53,-338.47 238.92,-324.83"/>
<polygon fill="black" stroke="black" points="242.28,-323.78 236.71,-314.77 235.44,-325.29 242.28,-323.78"/>
<text text-anchor="middle" x="226" y="-354.31" font-family="Times New Roman,serif" font-size="14.00">test.uints</text>
</g>
<!-- test_multi_channels&#45;&gt;test_multi_channels -->
<g id="edge14" class="edge">
<title>test_multi_channels&#45;&gt;test_multi_channels</title>
<path fill="none" stroke="black" d="M212.59,-314.59C200.72,-338.92 205.19,-368.51 226,-368.51 244.21,-368.51 249.9,-345.85 243.09,-323.89"/>
<polygon fill="black" stroke="black" points="246.35,-322.6 239.41,-314.59 239.84,-325.17 246.35,-322.6"/>
<text text-anchor="middle" x="226" y="-372.31" font-family="Times New Roman,serif" font-size="14.00">test.uints</text>
</g>
<!-- test_multi_channels&#45;&gt;test_prescaler -->
<g id="edge7" class="edge">
<title>test_multi_channels&#45;&gt;test_prescaler</title>
<path fill="none" stroke="black" d="M232.18,-314.75C241.63,-344.23 264.69,-401.69 307,-427.51 388.56,-477.29 431.1,-456.98 522,-427.51 533.38,-423.82 544.77,-417.68 554.73,-411.3"/>
<polygon fill="black" stroke="black" points="556.73,-414.18 563.08,-405.69 552.83,-408.37 556.73,-414.18"/>
<text text-anchor="middle" x="412" y="-461.31" font-family="Times New Roman,serif" font-size="14.00">test.uints</text>
</g>
<!-- test_multi_channels&#45;&gt;test_prescaler -->
<g id="edge11" class="edge">
<title>test_multi_channels&#45;&gt;test_prescaler</title>
<path fill="none" stroke="black" d="M238.97,-314.53C252.82,-333.68 277.53,-363.02 307,-376.51 378.41,-409.21 471.19,-404.92 529.68,-397.37"/>
<polygon fill="black" stroke="black" points="530.4,-400.8 539.83,-395.98 529.45,-393.87 530.4,-400.8"/>
<text text-anchor="middle" x="412" y="-406.31" font-family="Times New Roman,serif" font-size="14.00">test.uints</text>
</g>
<!-- test_multi_channels&#45;&gt;test_prescaler -->
<g id="edge15" class="edge">
<title>test_multi_channels&#45;&gt;test_prescaler</title>
<path fill="none" stroke="black" d="M273.62,-314.55C284.49,-318.44 296.08,-322.33 307,-325.51 383.18,-347.68 473.04,-366.34 529.77,-377.23"/>
<polygon fill="black" stroke="black" points="529.15,-380.67 539.62,-379.11 530.46,-373.8 529.15,-380.67"/>
<text text-anchor="middle" x="412" y="-363.31" font-family="Times New Roman,serif" font-size="14.00">test.uints</text>
</g>
<!-- test_multi_channels&#45;&gt;test_types -->
<g id="edge8" class="edge">
<title>test_multi_channels&#45;&gt;test_types</title>
<path fill="none" stroke="black" d="M253.14,-278.3C268.52,-267.9 288.52,-254.9 307,-244.51 328.49,-232.43 340.68,-238.99 357,-220.51 390.6,-182.46 403.43,-122.76 408.23,-87.75"/>
<polygon fill="black" stroke="black" points="411.72,-88.08 409.48,-77.72 404.77,-87.22 411.72,-88.08"/>
<text text-anchor="middle" x="332" y="-248.31" font-family="Times New Roman,serif" font-size="14.00">test.uints</text>
</g>
<!-- test_multi_channels&#45;&gt;test_types -->
<g id="edge12" class="edge">
<title>test_multi_channels&#45;&gt;test_types</title>
<path fill="none" stroke="black" d="M238.2,-278.45C252.06,-257.42 277.46,-222.85 307,-201.51 326.4,-187.49 339.77,-198.12 357,-181.51 383.61,-155.85 398.03,-114.76 405.12,-87.46"/>
<polygon fill="black" stroke="black" points="408.52,-88.27 407.48,-77.73 401.72,-86.62 408.52,-88.27"/>
<text text-anchor="middle" x="332" y="-205.31" font-family="Times New Roman,serif" font-size="14.00">test.uints</text>
</g>
<!-- test_multi_channels&#45;&gt;test_types -->
<g id="edge16" class="edge">
<title>test_multi_channels&#45;&gt;test_types</title>
<path fill="none" stroke="black" d="M233.94,-278.26C245.39,-250.22 270.66,-196.24 307,-162.51 325.21,-145.61 338.23,-153.79 357,-137.51 373.43,-123.26 387.28,-102.95 396.84,-86.63"/>
<polygon fill="black" stroke="black" points="400.1,-87.98 401.96,-77.55 394,-84.54 400.1,-87.98"/>
<text text-anchor="middle" x="332" y="-166.31" font-family="Times New Roman,serif" font-size="14.00">test.uints</text>
</g>
<!-- test_prescaler&#45;&gt;test_length -->
<g id="edge20" class="edge">
<title>test_prescaler&#45;&gt;test_length</title>
<path fill="none" stroke="black" d="M571.04,-405.63C558.99,-419.26 540.98,-437.56 522,-449.51 465.79,-484.9 440.91,-484.77 375,-476.51 278.52,-464.42 247.26,-471.03 163,-422.51 118.98,-397.16 80.16,-351.78 58.28,-322.95"/>
<polygon fill="black" stroke="black" points="60.83,-320.51 52.05,-314.58 55.21,-324.69 60.83,-320.51"/>
<text text-anchor="middle" x="332" y="-477.31" font-family="Times New Roman,serif" font-size="14.00">test.uints</text>
</g>
<!-- test_prescaler&#45;&gt;test_multi_channels -->
<g id="edge21" class="edge">
<title>test_prescaler&#45;&gt;test_multi_channels</title>
<path fill="none" stroke="black" d="M553.27,-369.37C526.14,-355.16 486.16,-336.09 449,-325.51 400.1,-311.58 343.21,-304.32 299.26,-300.54"/>
<polygon fill="black" stroke="black" points="299.49,-297.05 289.24,-299.72 298.92,-304.03 299.49,-297.05"/>
<text text-anchor="middle" x="412" y="-329.31" font-family="Times New Roman,serif" font-size="14.00">test.uints</text>
</g>
<!-- test_prescaler&#45;&gt;test_prescaler -->
<g id="edge22" class="edge">
<title>test_prescaler&#45;&gt;test_prescaler</title>
<path fill="none" stroke="black" d="M570.27,-405.66C567.69,-415.05 573.27,-423.51 587,-423.51 595.37,-423.51 600.71,-420.37 603.02,-415.79"/>
<polygon fill="black" stroke="black" points="606.52,-415.88 603.73,-405.66 599.54,-415.39 606.52,-415.88"/>
<text text-anchor="middle" x="587" y="-427.31" font-family="Times New Roman,serif" font-size="14.00">test.uints</text>
</g>
<!-- test_prescaler&#45;&gt;test_types -->
<g id="edge23" class="edge">
<title>test_prescaler&#45;&gt;test_types</title>
<path fill="none" stroke="black" d="M576.48,-369.46C547.75,-314.99 461.77,-151.98 427.42,-86.84"/>
<polygon fill="black" stroke="black" points="430.31,-84.82 422.55,-77.61 424.12,-88.09 430.31,-84.82"/>
<text text-anchor="middle" x="494.5" y="-266.31" font-family="Times New Roman,serif" font-size="14.00">test.uints</text>
</g>
<!-- test_types&#45;&gt;test_length -->
<g id="edge30" class="edge">
<title>test_types&#45;&gt;test_length</title>
<path fill="none" stroke="black" d="M376.57,-77.53C317.16,-109.17 192.39,-178.09 95,-248.51 85.36,-255.48 75.36,-263.76 66.56,-271.45"/>
<polygon fill="black" stroke="black" points="64,-269.05 58.85,-278.31 68.65,-274.28 64,-269.05"/>
<text text-anchor="middle" x="226" y="-204.31" font-family="Times New Roman,serif" font-size="14.00">test.uints</text>
</g>
<!-- test_types&#45;&gt;test_multi_channels -->
<g id="edge31" class="edge">
<title>test_types&#45;&gt;test_multi_channels</title>
<path fill="none" stroke="black" d="M411.64,-77.55C411.99,-116.43 407.14,-208.69 357,-259.51 348.2,-268.43 324.11,-276.35 299.02,-282.55"/>
<polygon fill="black" stroke="black" points="297.93,-279.21 289.01,-284.93 299.55,-286.02 297.93,-279.21"/>
<text text-anchor="middle" x="332" y="-283.31" font-family="Times New Roman,serif" font-size="14.00">test.uints</text>
</g>
<!-- test_types&#45;&gt;test_prescaler -->
<g id="edge32" class="edge">
<title>test_types&#45;&gt;test_prescaler</title>
<path fill="none" stroke="black" d="M445.11,-77.64C469.7,-93.13 502.59,-117.63 522,-147.51 565.91,-215.11 579.82,-311.96 584.13,-359.29"/>
<polygon fill="black" stroke="black" points="580.65,-359.74 584.97,-369.42 587.63,-359.16 580.65,-359.74"/>
<text text-anchor="middle" x="494.5" y="-151.31" font-family="Times New Roman,serif" font-size="14.00">test.uints</text>
</g>
<!-- test_types&#45;&gt;test_types -->
<g id="edge33" class="edge">
<title>test_types&#45;&gt;test_types</title>
<path fill="none" stroke="black" d="M409.59,-77.66C409.22,-87.05 410.02,-95.51 412,-95.51 413.21,-95.51 413.98,-92.37 414.31,-87.79"/>
<polygon fill="black" stroke="black" points="417.81,-87.7 414.41,-77.66 410.81,-87.63 417.81,-87.7"/>
<text text-anchor="middle" x="412" y="-99.31" font-family="Times New Roman,serif" font-size="14.00">test.uints</text>
</g>
<!-- test_types&#45;&gt;test_types -->
<g id="edge34" class="edge">
<title>test_types&#45;&gt;test_types</title>
<path fill="none" stroke="black" d="M407.96,-77.77C405.86,-94.91 407.21,-113.51 412,-113.51 415.86,-113.51 417.48,-101.47 416.88,-87.83"/>
<polygon fill="black" stroke="black" points="420.36,-87.44 416.04,-77.77 413.38,-88.02 420.36,-87.44"/>
<text text-anchor="middle" x="412" y="-117.31" font-family="Times New Roman,serif" font-size="14.00">test.ints</text>
</g>
<!-- test_types&#45;&gt;test_types -->
<g id="edge35" class="edge">
<title>test_types&#45;&gt;test_types</title>
<path fill="none" stroke="black" d="M406.94,-77.59C402.46,-101.92 404.15,-131.51 412,-131.51 418.78,-131.51 420.96,-109.46 418.55,-87.77"/>
<polygon fill="black" stroke="black" points="421.97,-86.98 417.06,-77.59 415.05,-87.99 421.97,-86.98"/>
<text text-anchor="middle" x="412" y="-135.31" font-family="Times New Roman,serif" font-size="14.00">test.floats</text>
</g>
<!-- test_types&#45;&gt;test_types -->
<g id="edge36" class="edge">
<title>test_types&#45;&gt;test_types</title>
<path fill="none" stroke="black" d="M406.2,-77.62C399.08,-108.75 401.01,-149.51 412,-149.51 421.83,-149.51 424.41,-116.89 419.75,-87.73"/>
<polygon fill="black" stroke="black" points="423.13,-86.78 417.8,-77.62 416.25,-88.1 423.13,-86.78"/>
<text text-anchor="middle" x="412" y="-153.31" font-family="Times New Roman,serif" font-size="14.00">test.strings</text>
</g>
<!-- test_types&#45;&gt;test_types -->
<g id="edge38" class="edge">
<title>test_types&#45;&gt;test_types</title>
<path fill="none" stroke="black" d="M405.68,-77.57C395.7,-115.3 397.81,-167.51 412,-167.51 424.97,-167.51 427.85,-123.89 420.63,-87.57"/>
<polygon fill="black" stroke="black" points="423.98,-86.53 418.32,-77.57 417.15,-88.1 423.98,-86.53"/>
<text text-anchor="middle" x="412" y="-171.31" font-family="Times New Roman,serif" font-size="14.00">test.bools</text>
</g>
<!-- test_types&#45;&gt;test_types -->
<g id="edge39" class="edge">
<title>test_types&#45;&gt;test_types</title>
<path fill="none" stroke="black" d="M405.26,-77.58C392.33,-121.77 394.58,-185.51 412,-185.51 428.16,-185.51 431.26,-130.65 421.3,-87.43"/>
<polygon fill="black" stroke="black" points="424.64,-86.37 418.74,-77.58 417.87,-88.13 424.64,-86.37"/>
<text text-anchor="middle" x="412" y="-189.31" font-family="Times New Roman,serif" font-size="14.00">test.enums</text>
</g>
<!-- test_peek -->
<g id="node5" class="node">
<title>test_peek</title>
<polygon fill="none" stroke="black" points="622,-77.51 552,-77.51 552,-41.51 622,-41.51 622,-77.51"/>
<text text-anchor="middle" x="587" y="-55.81" font-family="Times New Roman,serif" font-size="14.00">test_peek</text>
</g>
<!-- test_types&#45;&gt;test_peek -->
<g id="edge37" class="edge">
<title>test_types&#45;&gt;test_peek</title>
<path fill="none" stroke="black" stroke-dasharray="5,2" d="M449.27,-59.51C476.18,-59.51 513.02,-59.51 541.69,-59.51"/>
<polygon fill="black" stroke="black" points="541.84,-63.01 551.84,-59.51 541.84,-56.01 541.84,-63.01"/>
<text text-anchor="middle" x="494.5" y="-63.31" font-family="Times New Roman,serif" font-size="14.00">test.bools</text>
</g>
<!-- test_peek&#45;&gt;test_peek -->
<g id="edge17" class="edge">
<title>test_peek&#45;&gt;test_peek</title>
<path fill="none" stroke="black" d="M570.27,-77.66C567.69,-87.05 573.27,-95.51 587,-95.51 595.37,-95.51 600.71,-92.37 603.02,-87.79"/>
<polygon fill="black" stroke="black" points="606.52,-87.88 603.73,-77.66 599.54,-87.39 606.52,-87.88"/>
<text text-anchor="middle" x="587" y="-99.31" font-family="Times New Roman,serif" font-size="14.00">sensors.imu</text>
</g>
<!-- test_single_pub_multi_sub -->
<g id="node6" class="node">
<title>test_single_pub_multi_sub</title>
<polygon fill="none" stroke="black" points="904,-67.51 737,-67.51 737,-31.51 904,-31.51 904,-67.51"/>
<text text-anchor="middle" x="820.5" y="-45.81" font-family="Times New Roman,serif" font-size="14.00">test_single_pub_multi_sub</text>
</g>
<!-- test_peek&#45;&gt;test_single_pub_multi_sub -->
<g id="edge18" class="edge">
<title>test_peek&#45;&gt;test_single_pub_multi_sub</title>
<path fill="none" stroke="black" d="M622.22,-59.16C648.66,-58.79 686.16,-58.03 719,-56.51 721.56,-56.39 724.16,-56.26 726.78,-56.13"/>
<polygon fill="black" stroke="black" points="727.18,-59.61 736.98,-55.57 726.8,-52.62 727.18,-59.61"/>
<text text-anchor="middle" x="685.5" y="-63.31" font-family="Times New Roman,serif" font-size="14.00">sensors.imu</text>
</g>
<!-- test_single_pub_sub -->
<g id="node7" class="node">
<title>test_single_pub_sub</title>
<polygon fill="none" stroke="black" points="1139,-77.51 1007,-77.51 1007,-41.51 1139,-41.51 1139,-77.51"/>
<text text-anchor="middle" x="1073" y="-55.81" font-family="Times New Roman,serif" font-size="14.00">test_single_pub_sub</text>
</g>
<!-- test_peek&#45;&gt;test_single_pub_sub -->
<g id="edge19" class="edge">
<title>test_peek&#45;&gt;test_single_pub_sub</title>
<path fill="none" stroke="black" d="M622.11,-74.49C651.8,-86.67 696.34,-102.87 737,-109.51 810.25,-121.47 830.55,-120.21 904,-109.51 941.8,-104 982.92,-91.88 1015.01,-80.95"/>
<polygon fill="black" stroke="black" points="1016.37,-84.18 1024.67,-77.6 1014.08,-77.57 1016.37,-84.18"/>
<text text-anchor="middle" x="820.5" y="-122.31" font-family="Times New Roman,serif" font-size="14.00">sensors.imu</text>
</g>
<!-- test_single_pub_multi_sub&#45;&gt;test_peek -->
<g id="edge24" class="edge">
<title>test_single_pub_multi_sub&#45;&gt;test_peek</title>
<path fill="none" stroke="black" d="M736.92,-35.86C709.74,-33.43 679.46,-32.92 652,-37.51 645.3,-38.63 638.37,-40.36 631.65,-42.38"/>
<polygon fill="black" stroke="black" points="630.44,-39.09 622,-45.49 632.59,-45.75 630.44,-39.09"/>
<text text-anchor="middle" x="685.5" y="-41.31" font-family="Times New Roman,serif" font-size="14.00">sensors.imu</text>
</g>
<!-- test_single_pub_multi_sub&#45;&gt;test_single_pub_multi_sub -->
<g id="edge25" class="edge">
<title>test_single_pub_multi_sub&#45;&gt;test_single_pub_multi_sub</title>
<path fill="none" stroke="black" d="M796.08,-67.66C792.32,-77.05 800.46,-85.51 820.5,-85.51 832.71,-85.51 840.5,-82.37 843.88,-77.79"/>
<polygon fill="black" stroke="black" points="847.38,-77.97 844.92,-67.66 840.42,-77.25 847.38,-77.97"/>
<text text-anchor="middle" x="820.5" y="-89.31" font-family="Times New Roman,serif" font-size="14.00">sensors.imu</text>
</g>
<!-- test_single_pub_multi_sub&#45;&gt;test_single_pub_sub -->
<g id="edge26" class="edge">
<title>test_single_pub_multi_sub&#45;&gt;test_single_pub_sub</title>
<path fill="none" stroke="black" d="M904.02,-55.59C910.1,-55.93 916.15,-56.25 922,-56.51 946.25,-57.6 972.72,-58.29 996.58,-58.73"/>
<polygon fill="black" stroke="black" points="996.57,-62.23 1006.63,-58.91 996.7,-55.23 996.57,-62.23"/>
<text text-anchor="middle" x="955.5" y="-63.31" font-family="Times New Roman,serif" font-size="14.00">sensors.imu</text>
</g>
<!-- test_single_pub_sub&#45;&gt;test_peek -->
<g id="edge27" class="edge">
<title>test_single_pub_sub&#45;&gt;test_peek</title>
<path fill="none" stroke="black" d="M1019.88,-41.48C1009.67,-38.08 999.02,-34.61 989,-31.51 951.5,-19.9 942.88,-12.89 904,-7.51 830.48,2.67 810.58,2.27 737,-7.51 698.2,-12.67 688.83,-17.28 652,-30.51 645.21,-32.95 638.15,-35.81 631.29,-38.76"/>
<polygon fill="black" stroke="black" points="629.85,-35.57 622.12,-42.82 632.68,-41.97 629.85,-35.57"/>
<text text-anchor="middle" x="820.5" y="-11.31" font-family="Times New Roman,serif" font-size="14.00">sensors.imu</text>
</g>
<!-- test_single_pub_sub&#45;&gt;test_single_pub_multi_sub -->
<g id="edge28" class="edge">
<title>test_single_pub_sub&#45;&gt;test_single_pub_multi_sub</title>
<path fill="none" stroke="black" d="M1011.17,-41.47C1003.75,-39.84 996.24,-38.45 989,-37.51 964.97,-34.38 938.88,-34.55 914.61,-36.2"/>
<polygon fill="black" stroke="black" points="914.03,-32.73 904.33,-37 914.57,-39.71 914.03,-32.73"/>
<text text-anchor="middle" x="955.5" y="-41.31" font-family="Times New Roman,serif" font-size="14.00">sensors.imu</text>
</g>
<!-- test_single_pub_sub&#45;&gt;test_single_pub_sub -->
<g id="edge29" class="edge">
<title>test_single_pub_sub&#45;&gt;test_single_pub_sub</title>
<path fill="none" stroke="black" d="M1051.74,-77.66C1048.47,-87.05 1055.56,-95.51 1073,-95.51 1083.63,-95.51 1090.41,-92.37 1093.35,-87.79"/>
<polygon fill="black" stroke="black" points="1096.85,-87.94 1094.26,-77.66 1089.88,-87.31 1096.85,-87.94"/>
<text text-anchor="middle" x="1073" y="-99.31" font-family="Times New Roman,serif" font-size="14.00">sensors.imu</text>
</g>
</g>
</svg>
